<svg width="49" height="20" viewBox="0 0 49 20" fill="none" xmlns="http://www.w3.org/2000/svg">
<path d="M9.59947 3.60555C9.04577 4.22861 8.16368 4.72232 7.28307 4.65C7.16673 3.80999 7.60557 2.91018 8.11214 2.35249C8.66437 1.71692 9.63039 1.26076 10.4138 1.22321C10.5066 2.10077 10.1443 2.96303 9.60094 3.60555H9.59947ZM10.405 4.8155C9.12529 4.74179 8.02673 5.50949 7.42002 5.50949C6.80005 5.50949 5.87084 4.85166 4.85917 4.87391C3.54708 4.88921 2.3204 5.5971 1.65331 6.73612C0.264652 9.00165 1.29253 12.3561 2.6267 14.203C3.27907 15.1154 4.05954 16.1153 5.08889 16.0875C6.06228 16.0499 6.45399 15.4797 7.62766 15.4797C8.81604 15.4797 9.15327 16.0875 10.19 16.0652C11.2547 16.05 11.9291 15.1529 12.5815 14.2406C13.3251 13.2045 13.6314 12.1892 13.6476 12.1392C13.6314 12.1169 11.5845 11.3715 11.5698 9.12543C11.5536 7.24096 13.1794 6.34393 13.2486 6.29248C12.3356 4.98935 10.8939 4.85166 10.4035 4.81689L10.405 4.8155ZM17.7915 2.26488V15.9707H20.0225V11.2853H23.1076C25.9218 11.2853 27.901 9.43834 27.901 6.77228C27.901 4.10066 25.9615 2.26627 23.1842 2.26627L17.7915 2.26488ZM20.0225 4.06172H22.5922C24.5243 4.06172 25.6302 5.04637 25.6302 6.77785C25.6302 8.50933 24.5243 9.50232 22.5775 9.50232H20.0225V4.06172ZM31.9639 16.0722C33.3672 16.0722 34.6631 15.3991 35.2551 14.3254H35.3022V15.9707H37.3639V9.14629C37.3639 7.17699 35.7087 5.89611 33.1537 5.89611C30.7917 5.89611 29.0422 7.19229 28.9818 8.96688H30.9831C31.1525 8.11992 31.9653 7.56918 33.0933 7.56918C34.4584 7.56918 35.2183 8.17694 35.2183 9.29371V10.0461L32.4425 10.206C29.8492 10.3576 28.4532 11.3645 28.4532 13.1252C28.4532 14.8998 29.8963 16.0736 31.9653 16.0736L31.9639 16.0722ZM32.5706 14.4492C31.3807 14.4492 30.6223 13.9054 30.6223 13.0738C30.6223 12.2115 31.3513 11.7039 32.7384 11.6232L35.2168 11.4786V12.2532C35.2168 13.5369 34.0741 14.4492 32.5617 14.4492H32.5706ZM40.1176 19.7007C42.2868 19.7007 43.3088 18.9038 44.1982 16.5061L48.1094 6.03241H45.8475L43.2248 14.1224H43.1777L40.555 6.03241H38.2239L41.9982 16.0068L41.7979 16.6146C41.4518 17.6368 40.9011 18.0332 39.9188 18.0332C39.7421 18.0332 39.4049 18.0123 39.2665 17.9984V19.6436C39.3961 19.6784 39.9498 19.6937 40.1103 19.6937L40.1176 19.7007Z" fill="white"/>
</svg>
