<svg width="61" height="29" viewBox="0 0 61 29" fill="none" xmlns="http://www.w3.org/2000/svg">
<path d="M22 6.52734H28.0352C31.2109 6.52734 33.4492 8.75391 33.4492 11.9531C33.4492 15.1641 31.1875 17.4023 28.0117 17.4023H24.1094V23.4375H22V6.52734ZM24.1094 8.40234V15.5273H27.4844C29.8984 15.5273 31.2812 14.2031 31.2812 11.9531C31.2812 9.71484 29.9102 8.40234 27.4844 8.40234H24.1094ZM39.8734 21.9141C41.7953 21.9141 43.2719 20.5664 43.2719 18.8086V17.8125L40.0141 18.0117C38.3734 18.1172 37.4359 18.8438 37.4359 19.9922C37.4359 21.1523 38.4086 21.9141 39.8734 21.9141ZM39.4164 23.6484C36.9906 23.6484 35.3617 22.1836 35.3617 19.9922C35.3617 17.9062 36.9672 16.5938 39.7797 16.4297L43.2719 16.2305V15.2109C43.2719 13.7227 42.2875 12.832 40.6 12.832C39.0297 12.832 38.0453 13.5703 37.7875 14.7656H35.8188C35.9594 12.6562 37.7641 11.0391 40.6469 11.0391C43.5063 11.0391 45.3109 12.5859 45.3109 15.0117V23.4375H43.3773V21.3398H43.3305C42.6039 22.7344 41.057 23.6484 39.4164 23.6484ZM50.2586 27.9961C50.0125 27.9961 49.6023 27.9727 49.3797 27.9258V26.2148C49.6023 26.2617 49.9188 26.2734 50.1766 26.2734C51.3133 26.2734 51.9461 25.7227 52.4148 24.3047L52.6961 23.4492L48.1961 11.25H50.3758L53.7508 21.3984H53.7859L57.1609 11.25H59.3055L54.5125 24.293C53.4695 27.1406 52.4617 27.9961 50.2586 27.9961Z" fill="black"/>
<path d="M12.3672 7.27734C11.7129 8.06836 10.6191 8.6543 9.75 8.6543C9.64258 8.6543 9.54492 8.63477 9.48633 8.625C9.47656 8.57617 9.44727 8.42969 9.44727 8.27344C9.44727 7.27734 9.95508 6.28125 10.5117 5.65625C11.2051 4.83594 12.377 4.23047 13.3535 4.19141C13.373 4.29883 13.3828 4.43555 13.3828 4.57227C13.3828 5.56836 12.9629 6.55469 12.3672 7.27734ZM13.0508 8.85938C13.5977 8.85938 15.5801 8.91797 16.8789 10.7832C16.7617 10.8711 14.7988 11.9844 14.7988 14.4648C14.7988 17.3262 17.2988 18.3516 17.377 18.3711C17.3672 18.4395 16.9766 19.7578 16.0586 21.1152C15.2285 22.2969 14.3594 23.498 13.0508 23.498C11.7324 23.498 11.3906 22.7266 9.88672 22.7266C8.40234 22.7266 7.875 23.498 6.68359 23.498C5.47266 23.498 4.63281 22.4141 3.67578 21.0664C2.55273 19.4746 1.6543 17.0039 1.6543 14.6602C1.6543 10.9102 4.0957 8.85938 6.50781 8.85938C7.77734 8.85938 8.83203 9.74805 9.64258 9.74805C10.4043 9.74805 11.5957 8.85938 13.0508 8.85938Z" fill="black"/>
</svg>
