<svg width="33" height="32" viewBox="0 0 33 32" fill="none" xmlns="http://www.w3.org/2000/svg">
<path d="M19.0069 5.37682C18.8422 5.38336 18.6833 5.41278 18.5178 5.45364L7.32376 8.16021C5.99965 8.48219 5.17126 9.80769 5.49652 11.1226L7.06602 17.482C7.16113 17.8608 7.34631 18.2115 7.60605 18.5047C7.8658 18.7979 8.19255 19.025 8.55894 19.1671V17.6349C8.55894 15.3818 10.4059 13.5488 12.6762 13.5488H23.0467L21.5028 7.24086C21.3662 6.69254 21.0433 6.20771 20.5885 5.86815C20.1337 5.52859 19.5748 5.35506 19.0061 5.37682H19.0069ZM20.0098 8.90142L20.6793 11.6848L17.9002 12.3484L17.2052 9.59032L20.0098 8.90142ZM12.6762 15.1832C11.3126 15.1832 10.2058 16.2816 10.2058 17.6349V24.1725C10.2058 25.5258 11.3126 26.6241 12.6762 26.6241H24.2045C25.5681 26.6241 26.6749 25.5258 26.6749 24.1725V17.6349C26.6749 16.2816 25.5681 15.1832 24.2045 15.1832H12.6762ZM12.6762 16.4859H24.2045C24.8394 16.4859 25.3623 17.0048 25.3623 17.6349V18.4521H11.5184V17.6349C11.5184 17.0048 12.0413 16.4859 12.6762 16.4859ZM11.5184 20.9037H25.3623V24.1725C25.3623 24.8025 24.8394 25.3215 24.2045 25.3215H12.6762C12.3697 25.3197 12.0762 25.1981 11.8594 24.983C11.6427 24.7679 11.5201 24.4767 11.5184 24.1725V20.9037Z" fill="#0B0B0B"/>
</svg>
