<svg width="33" height="33" viewBox="0 0 33 33" fill="none" xmlns="http://www.w3.org/2000/svg">
<g clip-path="url(#clip0_4145_1126)">
<rect x="-2.13946" y="7.04724" width="16.5362" height="29.6114" rx="2.49966" fill="#0A84FF" fill-opacity="0.1" stroke="#007AFF" stroke-width="1.15369"/>
<path d="M14.9731 12.6229H15.3577C15.5701 12.6229 15.7423 12.795 15.7423 13.0074V19.1604C15.7423 19.3728 15.5701 19.545 15.3577 19.545H14.9731V12.6229Z" fill="#007AFF"/>
<path d="M10.2301 7.2811L10.24 7.06684C10.244 6.98126 10.2874 6.90237 10.3577 6.85333H-1.1792V9.16071H8.35048C9.38856 9.16071 10.2301 8.31918 10.2301 7.2811Z" fill="#007AFF"/>
<path d="M18.4331 16.0861C18.4331 15.8714 18.525 15.6461 18.668 15.5047L21.9822 12.1048C22.1456 11.9372 22.3345 11.8533 22.5235 11.8533C22.9728 11.8533 23.2792 12.1729 23.2792 12.5972C23.2792 12.8382 23.1771 13.0215 23.0341 13.163L21.8749 14.3574L20.8179 15.358L21.9209 15.2951H26.8609C27.3409 15.2951 27.6626 15.6147 27.6626 16.0861C27.6626 16.5576 27.3409 16.8719 26.8609 16.8719H21.9209L20.8179 16.8143L21.8749 17.8097L23.0341 18.9988C23.1771 19.1455 23.2792 19.3289 23.2792 19.5646C23.2792 19.9889 22.9728 20.3137 22.5235 20.3137C22.3345 20.3137 22.1456 20.2299 21.9873 20.0675L18.668 16.6624C18.525 16.521 18.4331 16.2957 18.4331 16.0861Z" fill="#007AFF"/>
</g>
<rect x="1.12801" y="1.0873" width="30.765" height="30.765" rx="15.3825" stroke="#007AFF" stroke-width="1.53825"/>
<defs>
<clipPath id="clip0_4145_1126">
<rect x="0.358887" y="0.318176" width="32.3033" height="32.3033" rx="16.1516" fill="white"/>
</clipPath>
</defs>
</svg>
